<mxfile host="app.diagrams.net" modified="2023-05-04T15:03:54.261Z" agent="Mozilla/5.0 (Windows NT 10.0; Win64; x64) AppleWebKit/537.36 (KHTML, like Gecko) Chrome/112.0.0.0 Safari/537.36" etag="90wo4IAWk0mcWdjwU6C4" version="21.2.8" type="device">
  <diagram id="C5RBs43oDa-KdzZeNtuy" name="Page-1">
    <mxGraphModel dx="1134" dy="660" grid="1" gridSize="10" guides="1" tooltips="1" connect="1" arrows="1" fold="1" page="1" pageScale="1" pageWidth="827" pageHeight="1169" math="0" shadow="0">
      <root>
        <mxCell id="WIyWlLk6GJQsqaUBKTNV-0" />
        <mxCell id="WIyWlLk6GJQsqaUBKTNV-1" parent="WIyWlLk6GJQsqaUBKTNV-0" />
        <mxCell id="SK3V0hYMDvkUHqYb1NCw-0" value="Google Translate API" style="rounded=1;whiteSpace=wrap;html=1;fillColor=#ffe6cc;strokeColor=#d79b00;" parent="WIyWlLk6GJQsqaUBKTNV-1" vertex="1">
          <mxGeometry x="330" y="465" width="130" height="70" as="geometry" />
        </mxCell>
        <mxCell id="KnLInd0GSH9oIYyJNBlL-0" value="Konlpy Library" style="rounded=1;whiteSpace=wrap;html=1;fillColor=#d5e8d4;strokeColor=#82b366;" vertex="1" parent="WIyWlLk6GJQsqaUBKTNV-1">
          <mxGeometry x="100" y="470" width="120" height="60" as="geometry" />
        </mxCell>
        <mxCell id="KnLInd0GSH9oIYyJNBlL-1" value="App Storage" style="rounded=1;whiteSpace=wrap;html=1;fillColor=#e1d5e7;strokeColor=#9673a6;" vertex="1" parent="WIyWlLk6GJQsqaUBKTNV-1">
          <mxGeometry x="300" y="170" width="120" height="60" as="geometry" />
        </mxCell>
        <mxCell id="KnLInd0GSH9oIYyJNBlL-4" value="local Storage" style="shape=hexagon;perimeter=hexagonPerimeter2;whiteSpace=wrap;html=1;fixedSize=1;" vertex="1" parent="WIyWlLk6GJQsqaUBKTNV-1">
          <mxGeometry x="180" y="175" width="70" height="45" as="geometry" />
        </mxCell>
        <mxCell id="KnLInd0GSH9oIYyJNBlL-8" value="" style="endArrow=none;dashed=1;html=1;dashPattern=1 3;strokeWidth=2;rounded=0;" edge="1" parent="WIyWlLk6GJQsqaUBKTNV-1">
          <mxGeometry width="50" height="50" relative="1" as="geometry">
            <mxPoint x="250" y="130" as="sourcePoint" />
            <mxPoint x="300" y="200" as="targetPoint" />
            <Array as="points">
              <mxPoint x="250" y="150" />
              <mxPoint x="250" y="200" />
            </Array>
          </mxGeometry>
        </mxCell>
        <mxCell id="KnLInd0GSH9oIYyJNBlL-10" value="" style="ellipse;shape=cloud;whiteSpace=wrap;html=1;" vertex="1" parent="WIyWlLk6GJQsqaUBKTNV-1">
          <mxGeometry x="300" y="100" width="66" height="50" as="geometry" />
        </mxCell>
        <mxCell id="KnLInd0GSH9oIYyJNBlL-11" value="Cache" style="shape=hexagon;perimeter=hexagonPerimeter2;whiteSpace=wrap;html=1;fixedSize=1;" vertex="1" parent="WIyWlLk6GJQsqaUBKTNV-1">
          <mxGeometry x="180" y="240" width="70" height="40" as="geometry" />
        </mxCell>
        <mxCell id="KnLInd0GSH9oIYyJNBlL-12" value="" style="endArrow=none;dashed=1;html=1;dashPattern=1 3;strokeWidth=2;rounded=0;exitX=0.5;exitY=0;exitDx=0;exitDy=0;entryX=0.5;entryY=1;entryDx=0;entryDy=0;" edge="1" parent="WIyWlLk6GJQsqaUBKTNV-1" source="KnLInd0GSH9oIYyJNBlL-11" target="KnLInd0GSH9oIYyJNBlL-4">
          <mxGeometry width="50" height="50" relative="1" as="geometry">
            <mxPoint x="380" y="260" as="sourcePoint" />
            <mxPoint x="430" y="210" as="targetPoint" />
          </mxGeometry>
        </mxCell>
        <mxCell id="KnLInd0GSH9oIYyJNBlL-14" value="&lt;font style=&quot;font-size: 19px;&quot;&gt;?&lt;/font&gt;" style="text;html=1;strokeColor=none;fillColor=none;align=center;verticalAlign=middle;whiteSpace=wrap;rounded=0;" vertex="1" parent="WIyWlLk6GJQsqaUBKTNV-1">
          <mxGeometry x="350" y="120" width="64" height="30" as="geometry" />
        </mxCell>
        <mxCell id="KnLInd0GSH9oIYyJNBlL-15" value="MongoDB" style="shape=cylinder3;whiteSpace=wrap;html=1;boundedLbl=1;backgroundOutline=1;size=15;" vertex="1" parent="WIyWlLk6GJQsqaUBKTNV-1">
          <mxGeometry x="175" y="70" width="75" height="70" as="geometry" />
        </mxCell>
        <mxCell id="KnLInd0GSH9oIYyJNBlL-16" value="Actor" style="shape=umlActor;verticalLabelPosition=bottom;verticalAlign=top;html=1;outlineConnect=0;" vertex="1" parent="WIyWlLk6GJQsqaUBKTNV-1">
          <mxGeometry x="730" y="450" width="30" height="60" as="geometry" />
        </mxCell>
        <mxCell id="KnLInd0GSH9oIYyJNBlL-33" value="" style="endArrow=none;dashed=1;html=1;dashPattern=1 3;strokeWidth=2;rounded=0;entryX=0.55;entryY=0.95;entryDx=0;entryDy=0;exitX=0.339;exitY=0;exitDx=0;exitDy=0;exitPerimeter=0;entryPerimeter=0;" edge="1" parent="WIyWlLk6GJQsqaUBKTNV-1" source="KnLInd0GSH9oIYyJNBlL-1" target="KnLInd0GSH9oIYyJNBlL-10">
          <mxGeometry width="50" height="50" relative="1" as="geometry">
            <mxPoint x="380" y="260" as="sourcePoint" />
            <mxPoint x="430" y="210" as="targetPoint" />
          </mxGeometry>
        </mxCell>
        <mxCell id="KnLInd0GSH9oIYyJNBlL-36" value="" style="swimlane;startSize=0;fillColor=#f5f5f5;fontColor=#333333;strokeColor=#666666;" vertex="1" parent="WIyWlLk6GJQsqaUBKTNV-1">
          <mxGeometry x="134" y="40" width="560" height="390" as="geometry" />
        </mxCell>
        <mxCell id="KnLInd0GSH9oIYyJNBlL-38" value="Functions" style="shape=card;whiteSpace=wrap;html=1;fillColor=#fad9d5;strokeColor=#ae4132;" vertex="1" parent="KnLInd0GSH9oIYyJNBlL-36">
          <mxGeometry x="50" y="300" width="76" height="60" as="geometry" />
        </mxCell>
        <mxCell id="KnLInd0GSH9oIYyJNBlL-19" value="&lt;font style=&quot;font-size: 9px;&quot;&gt;Answer&lt;/font&gt;" style="shape=card;whiteSpace=wrap;html=1;fillColor=#dae8fc;strokeColor=#6c8ebf;" vertex="1" parent="KnLInd0GSH9oIYyJNBlL-36">
          <mxGeometry x="360" y="130" width="60" height="50" as="geometry" />
        </mxCell>
        <mxCell id="KnLInd0GSH9oIYyJNBlL-20" value="&lt;font style=&quot;font-size: 9px;&quot;&gt;Question&lt;/font&gt;" style="shape=card;whiteSpace=wrap;html=1;fillColor=#d5e8d4;strokeColor=#82b366;" vertex="1" parent="KnLInd0GSH9oIYyJNBlL-36">
          <mxGeometry x="360" y="60" width="60" height="50" as="geometry" />
        </mxCell>
        <mxCell id="KnLInd0GSH9oIYyJNBlL-22" value="" style="endArrow=none;dashed=1;html=1;dashPattern=1 3;strokeWidth=2;rounded=0;exitX=1;exitY=0.5;exitDx=0;exitDy=0;exitPerimeter=0;entryX=0.837;entryY=-0.014;entryDx=0;entryDy=0;entryPerimeter=0;" edge="1" parent="KnLInd0GSH9oIYyJNBlL-36" source="KnLInd0GSH9oIYyJNBlL-19" target="KnLInd0GSH9oIYyJNBlL-17">
          <mxGeometry width="50" height="50" relative="1" as="geometry">
            <mxPoint x="340" y="60" as="sourcePoint" />
            <mxPoint x="500" y="140.0000000000001" as="targetPoint" />
          </mxGeometry>
        </mxCell>
        <mxCell id="KnLInd0GSH9oIYyJNBlL-32" value="" style="endArrow=classic;startArrow=classic;html=1;rounded=0;entryX=0.5;entryY=1;entryDx=0;entryDy=0;entryPerimeter=0;exitX=0;exitY=0;exitDx=30;exitDy=0;exitPerimeter=0;" edge="1" parent="KnLInd0GSH9oIYyJNBlL-36" source="KnLInd0GSH9oIYyJNBlL-19" target="KnLInd0GSH9oIYyJNBlL-20">
          <mxGeometry width="50" height="50" relative="1" as="geometry">
            <mxPoint x="340" y="60" as="sourcePoint" />
            <mxPoint x="390" y="10" as="targetPoint" />
          </mxGeometry>
        </mxCell>
        <mxCell id="KnLInd0GSH9oIYyJNBlL-29" value="" style="swimlane;startSize=0;" vertex="1" parent="KnLInd0GSH9oIYyJNBlL-36">
          <mxGeometry x="340.5" y="40" width="99" height="150" as="geometry" />
        </mxCell>
        <mxCell id="KnLInd0GSH9oIYyJNBlL-17" value="Phrase" style="shape=card;whiteSpace=wrap;html=1;fillColor=#fad9d5;strokeColor=#ae4132;" vertex="1" parent="KnLInd0GSH9oIYyJNBlL-36">
          <mxGeometry x="470" y="80" width="80" height="70" as="geometry" />
        </mxCell>
        <mxCell id="KnLInd0GSH9oIYyJNBlL-41" value="" style="endArrow=none;dashed=1;html=1;dashPattern=1 3;strokeWidth=2;rounded=0;entryX=1;entryY=0.5;entryDx=0;entryDy=0;entryPerimeter=0;exitX=0;exitY=0;exitDx=0;exitDy=50;exitPerimeter=0;" edge="1" parent="KnLInd0GSH9oIYyJNBlL-36" source="KnLInd0GSH9oIYyJNBlL-17" target="KnLInd0GSH9oIYyJNBlL-20">
          <mxGeometry width="50" height="50" relative="1" as="geometry">
            <mxPoint x="210" y="310" as="sourcePoint" />
            <mxPoint x="260" y="260" as="targetPoint" />
          </mxGeometry>
        </mxCell>
        <mxCell id="KnLInd0GSH9oIYyJNBlL-50" value="HGMain" style="shape=card;whiteSpace=wrap;html=1;fillColor=#fad9d5;strokeColor=#ae4132;" vertex="1" parent="KnLInd0GSH9oIYyJNBlL-36">
          <mxGeometry x="264.5" y="240" width="76" height="60" as="geometry" />
        </mxCell>
        <mxCell id="KnLInd0GSH9oIYyJNBlL-51" value="GUI" style="shape=card;whiteSpace=wrap;html=1;fillColor=#fff2cc;strokeColor=#d6b656;" vertex="1" parent="KnLInd0GSH9oIYyJNBlL-36">
          <mxGeometry x="456" y="310" width="76" height="60" as="geometry" />
        </mxCell>
        <mxCell id="KnLInd0GSH9oIYyJNBlL-53" value="" style="curved=1;endArrow=classic;html=1;rounded=0;exitX=0.5;exitY=1;exitDx=0;exitDy=0;exitPerimeter=0;entryX=1;entryY=0.5;entryDx=0;entryDy=0;entryPerimeter=0;" edge="1" parent="KnLInd0GSH9oIYyJNBlL-36" source="KnLInd0GSH9oIYyJNBlL-50" target="KnLInd0GSH9oIYyJNBlL-38">
          <mxGeometry width="50" height="50" relative="1" as="geometry">
            <mxPoint x="206" y="220" as="sourcePoint" />
            <mxPoint x="256" y="170" as="targetPoint" />
            <Array as="points">
              <mxPoint x="356" y="350" />
              <mxPoint x="176" y="340" />
            </Array>
          </mxGeometry>
        </mxCell>
        <mxCell id="KnLInd0GSH9oIYyJNBlL-54" value="" style="curved=1;endArrow=classic;html=1;rounded=0;exitX=0.5;exitY=1;exitDx=0;exitDy=0;exitPerimeter=0;entryX=0.5;entryY=1;entryDx=0;entryDy=0;entryPerimeter=0;" edge="1" parent="KnLInd0GSH9oIYyJNBlL-36" target="KnLInd0GSH9oIYyJNBlL-17">
          <mxGeometry width="50" height="50" relative="1" as="geometry">
            <mxPoint x="342" y="270" as="sourcePoint" />
            <mxPoint x="165" y="300" as="targetPoint" />
            <Array as="points">
              <mxPoint x="516" y="230" />
              <mxPoint x="526" y="210" />
            </Array>
          </mxGeometry>
        </mxCell>
        <mxCell id="KnLInd0GSH9oIYyJNBlL-57" value="" style="endArrow=none;html=1;rounded=0;exitX=1;exitY=1;exitDx=0;exitDy=0;exitPerimeter=0;entryX=0;entryY=0;entryDx=0;entryDy=30;entryPerimeter=0;" edge="1" parent="KnLInd0GSH9oIYyJNBlL-36" source="KnLInd0GSH9oIYyJNBlL-50" target="KnLInd0GSH9oIYyJNBlL-51">
          <mxGeometry width="50" height="50" relative="1" as="geometry">
            <mxPoint x="206" y="220" as="sourcePoint" />
            <mxPoint x="256" y="170" as="targetPoint" />
          </mxGeometry>
        </mxCell>
        <mxCell id="KnLInd0GSH9oIYyJNBlL-37" value="HanGoal" style="rounded=1;whiteSpace=wrap;html=1;" vertex="1" parent="WIyWlLk6GJQsqaUBKTNV-1">
          <mxGeometry x="130" y="20" width="100" height="30" as="geometry" />
        </mxCell>
        <mxCell id="KnLInd0GSH9oIYyJNBlL-30" value="" style="endArrow=none;html=1;rounded=0;entryX=1;entryY=0.5;entryDx=0;entryDy=0;exitX=0;exitY=0.5;exitDx=0;exitDy=0;" edge="1" parent="WIyWlLk6GJQsqaUBKTNV-1" source="KnLInd0GSH9oIYyJNBlL-29" target="KnLInd0GSH9oIYyJNBlL-1">
          <mxGeometry width="50" height="50" relative="1" as="geometry">
            <mxPoint x="470" y="175.0000000000001" as="sourcePoint" />
            <mxPoint x="440" y="60" as="targetPoint" />
          </mxGeometry>
        </mxCell>
        <mxCell id="KnLInd0GSH9oIYyJNBlL-47" value="" style="endArrow=none;dashed=1;html=1;rounded=0;exitX=0.5;exitY=0;exitDx=0;exitDy=0;entryX=0.5;entryY=1;entryDx=0;entryDy=0;entryPerimeter=0;" edge="1" parent="WIyWlLk6GJQsqaUBKTNV-1" source="KnLInd0GSH9oIYyJNBlL-0" target="KnLInd0GSH9oIYyJNBlL-38">
          <mxGeometry width="50" height="50" relative="1" as="geometry">
            <mxPoint x="340" y="260" as="sourcePoint" />
            <mxPoint x="220" y="410" as="targetPoint" />
          </mxGeometry>
        </mxCell>
        <mxCell id="KnLInd0GSH9oIYyJNBlL-58" value="" style="endArrow=classic;startArrow=classic;html=1;rounded=0;exitX=1;exitY=1;exitDx=0;exitDy=0;exitPerimeter=0;entryX=0;entryY=0;entryDx=0;entryDy=0;" edge="1" parent="WIyWlLk6GJQsqaUBKTNV-1" source="KnLInd0GSH9oIYyJNBlL-38" target="SK3V0hYMDvkUHqYb1NCw-0">
          <mxGeometry width="50" height="50" relative="1" as="geometry">
            <mxPoint x="340" y="260" as="sourcePoint" />
            <mxPoint x="390" y="210" as="targetPoint" />
          </mxGeometry>
        </mxCell>
        <mxCell id="KnLInd0GSH9oIYyJNBlL-60" value="" style="endArrow=classic;startArrow=classic;html=1;rounded=0;exitX=1;exitY=1;exitDx=0;exitDy=0;exitPerimeter=0;entryX=0;entryY=0.3333333333333333;entryDx=0;entryDy=0;entryPerimeter=0;" edge="1" parent="WIyWlLk6GJQsqaUBKTNV-1" source="KnLInd0GSH9oIYyJNBlL-51" target="KnLInd0GSH9oIYyJNBlL-16">
          <mxGeometry width="50" height="50" relative="1" as="geometry">
            <mxPoint x="670" y="410" as="sourcePoint" />
            <mxPoint x="740" y="475" as="targetPoint" />
          </mxGeometry>
        </mxCell>
      </root>
    </mxGraphModel>
  </diagram>
</mxfile>
